<?xml version="1.0" encoding="iso-8859-1"?>
<!-- Generator: Adobe Illustrator 19.0.0, SVG Export Plug-In . SVG Version: 6.00 Build 0)  -->
<svg xmlns="http://www.w3.org/2000/svg" xmlns:xlink="http://www.w3.org/1999/xlink" version="1.1" id="Capa_1" x="0px" y="0px" viewBox="0 0 512 512" style="enable-background:new 0 0 512 512;" xml:space="preserve" width="512" height="512">
<g>
	<g>
		<g>
			<path style="fill:#EBEEF2;" d="M428.174,169.833h-23.916h-66.951h-47.832h-66.951h-47.832h-66.951H83.826H59.91v54.712h47.832     v-9.643c0-13.55,10.985-24.535,24.535-24.535h17.88c13.55,0,24.535,10.985,24.535,24.535v9.643h47.832v-9.643     c0-13.55,10.985-24.535,24.535-24.535h17.88c13.55,0,24.535,10.985,24.535,24.535v9.643h47.832v-9.643     c0-13.55,10.985-24.535,24.535-24.535h17.88c13.55,0,24.535,10.985,24.535,24.535v9.643H432h20.09v-54.712H428.174z"/>
			<rect x="59.91" y="169.757" style="fill:#D1D6DE;" width="392.18" height="17.702"/>
			<path style="fill:#B5BCC6;" d="M32.091,152.952v-13.366h447.818v13.366c0,9.282-7.524,16.806-16.806,16.806H48.897     C39.615,169.757,32.091,162.233,32.091,152.952z"/>
			<path style="fill:#989FA8;" d="M452.09,139.586v13.366c0,9.281-7.524,16.806-16.806,16.806h27.818     c9.282,0,16.806-7.524,16.806-16.806v-13.366H452.09z"/>
			<polygon style="fill:#EBEEF2;" points="256,17.154 7.5,115.392 7.5,139.586 504.5,139.586 504.5,115.392    "/>
			<polygon style="fill:#D1D6DE;" points="256,17.154 225.982,29.021 471.025,125.891 471.025,139.586 504.5,139.586 504.5,115.391         "/>
			<circle style="fill:#D1D6DE;" cx="256" cy="82.704" r="24.337"/>
		</g>
		<g>
			<g>
				<path style="fill:#5C9CEE;" d="M385.361,369.697h-27.962c-19.209,0-34.781,15.572-34.781,34.781v42.833h97.524v-42.833      C420.141,385.269,404.57,369.697,385.361,369.697z"/>
				<polygon style="fill:#444966;" points="375.532,369.697 367.227,369.697 355.747,408.719 371.38,424.73 387.013,408.719     "/>
				<g>
					<path style="fill:#5C9CEE;" d="M154.602,369.697h-27.962c-19.209,0-34.781,15.572-34.781,34.781v42.833h97.524v-42.833       C189.382,385.269,173.81,369.697,154.602,369.697z"/>
					<polygon style="fill:#444966;" points="144.773,369.697 136.468,369.697 124.987,408.719 140.62,424.73 156.253,408.719             "/>
					<g>
						<path style="fill:#F9C295;" d="M140.62,252.396L140.62,252.396c-21.927,0-39.702,17.775-39.702,39.702v19.141        c0,21.927,17.776,39.702,39.702,39.702l0,0c21.927,0,39.702-17.775,39.702-39.702v-19.141        C180.323,270.172,162.547,252.396,140.62,252.396z"/>
						<path style="fill:#F2DF33;" d="M166.452,261.968c0-0.002,0.001-0.003,0.001-0.005c-0.073-0.063-0.15-0.121-0.224-0.184        c-0.304-0.257-0.611-0.51-0.923-0.758c-0.142-0.113-0.286-0.224-0.429-0.335c-0.286-0.221-0.574-0.438-0.866-0.651        c-0.17-0.124-0.341-0.248-0.514-0.369c-0.268-0.189-0.537-0.374-0.81-0.556c-0.2-0.134-0.4-0.268-0.603-0.398        c-0.244-0.157-0.491-0.31-0.739-0.462c-0.235-0.144-0.469-0.288-0.706-0.427c-0.21-0.123-0.422-0.24-0.634-0.359        c-0.279-0.157-0.558-0.314-0.842-0.465c-0.146-0.077-0.295-0.15-0.441-0.225c-5.428-2.791-11.577-4.376-18.102-4.376        c-21.927,0-39.702,17.775-39.702,39.702v3.67c5.846,2.579,12.306,4.022,19.107,4.022c13.966,0,26.513-6.048,35.187-15.659        c5.484,8.451,14.583,14.34,25.111,15.461v-7.494C180.323,280.04,174.94,269.246,166.452,261.968z"/>
					</g>
				</g>
				<g>
					<path style="fill:#F9C295;" d="M371.38,252.396L371.38,252.396c-21.927,0-39.703,17.775-39.703,39.702v19.141       c0,21.927,17.776,39.702,39.703,39.702l0,0c21.927,0,39.702-17.775,39.702-39.702v-19.141       C411.082,270.172,393.307,252.396,371.38,252.396z"/>
					<path style="fill:#F2DF33;" d="M397.211,261.968c0-0.002,0.001-0.003,0.001-0.005c-0.073-0.063-0.15-0.121-0.224-0.184       c-0.304-0.257-0.611-0.51-0.923-0.758c-0.142-0.113-0.286-0.224-0.429-0.335c-0.286-0.221-0.574-0.438-0.866-0.651       c-0.17-0.124-0.341-0.248-0.514-0.369c-0.268-0.189-0.537-0.374-0.81-0.556c-0.2-0.134-0.4-0.268-0.603-0.398       c-0.244-0.157-0.491-0.31-0.739-0.462c-0.235-0.144-0.469-0.288-0.706-0.427c-0.21-0.123-0.422-0.24-0.634-0.359       c-0.279-0.157-0.558-0.314-0.842-0.465c-0.146-0.077-0.295-0.15-0.441-0.225c-5.428-2.791-11.577-4.376-18.102-4.376       c-21.927,0-39.702,17.775-39.702,39.702v3.67c5.846,2.579,12.306,4.022,19.107,4.022c13.966,0,26.513-6.048,35.187-15.659       c5.484,8.451,14.583,14.34,25.111,15.461v-7.494C411.082,280.04,405.699,269.246,397.211,261.968z"/>
				</g>
			</g>
			<g>
				<path style="fill:#EBEEF2;" d="M275.101,388.811h-38.202c-26.243,0-47.517,21.274-47.517,47.517v58.518h133.236v-58.518      C322.618,410.085,301.344,388.811,275.101,388.811z"/>
				<path style="fill:#D1D6DE;" d="M275.101,388.811h-14.337c21.854,0,39.569,21.274,39.569,47.517v58.518h22.285v-58.518      C322.618,410.085,301.344,388.811,275.101,388.811z"/>
				<polygon style="fill:#444966;" points="261.673,388.811 250.327,388.811 234.642,442.121 256,463.995 277.358,442.121     "/>
				<g>
					<path style="fill:#F9C295;" d="M256,231.438L256,231.438c-29.957,0-54.242,24.285-54.242,54.241v26.151       c0,29.957,24.285,54.241,54.242,54.241l0,0c29.957,0,54.241-24.285,54.241-54.241v-26.151       C310.241,255.722,285.957,231.438,256,231.438z"/>
					<path style="fill:#E59F6A;" d="M256,231.438c-2.321,0-4.603,0.162-6.847,0.445c21.607,3.368,38.322,26.16,38.322,53.796v26.151       c0,27.636-16.716,50.428-38.322,53.796c2.244,0.283,4.526,0.445,6.847,0.445c29.957,0,54.241-24.285,54.241-54.241v-26.151       C310.241,255.722,285.957,231.438,256,231.438z"/>
					<path style="fill:#444966;" d="M291.291,244.515c0-0.002,0.001-0.004,0.002-0.006c-0.1-0.086-0.205-0.166-0.306-0.251       c-0.416-0.351-0.835-0.697-1.261-1.036c-0.194-0.154-0.39-0.306-0.587-0.458c-0.39-0.302-0.785-0.599-1.183-0.89       c-0.232-0.17-0.466-0.338-0.702-0.505c-0.366-0.258-0.734-0.511-1.106-0.76c-0.273-0.183-0.547-0.366-0.823-0.544       c-0.334-0.215-0.671-0.423-1.01-0.631c-0.32-0.197-0.64-0.394-0.965-0.584c-0.286-0.167-0.577-0.328-0.867-0.49       c-0.382-0.214-0.762-0.429-1.15-0.635c-0.199-0.105-0.403-0.205-0.603-0.308c-7.416-3.813-15.817-5.979-24.731-5.979       c-29.957,0-54.241,24.285-54.241,54.241v5.014c7.987,3.524,16.813,5.495,26.104,5.495c19.08,0,36.222-8.262,48.072-21.393       c7.493,11.546,19.923,19.591,34.307,21.122v-10.239C310.241,269.204,302.887,254.458,291.291,244.515z"/>
					<path style="fill:#2E344C;" d="M291.291,244.515c0-0.002,0.001-0.004,0.001-0.006c-0.478-0.251-16.588-15.845-42.14-12.625       c21.607,3.368,38.322,26.16,38.322,53.796v1.353c6.508,4.807,14.293,7.984,22.766,8.886       C309.304,290.308,315.115,264.942,291.291,244.515z"/>
				</g>
			</g>
		</g>
	</g>
	<g>
		<path d="M404.258,232.045c4.143,0,7.5-3.358,7.5-7.5v-9.643c0-17.664-14.371-32.035-32.035-32.035h-17.88    c-17.664,0-32.035,14.371-32.035,32.035v9.643c0,4.142,3.357,7.5,7.5,7.5s7.5-3.358,7.5-7.5v-9.643    c0-9.393,7.642-17.035,17.035-17.035h17.88c9.394,0,17.035,7.642,17.035,17.035v9.643    C396.758,228.687,400.115,232.045,404.258,232.045z"/>
		<path d="M230.024,214.902c0-9.393,7.642-17.035,17.035-17.035h17.881c9.394,0,17.035,7.642,17.035,17.035    c0,4.142,3.357,7.5,7.5,7.5s7.5-3.358,7.5-7.5c0-17.664-14.371-32.035-32.035-32.035H247.06    c-17.664,0-32.035,14.371-32.035,32.035c0,4.142,3.357,7.5,7.5,7.5S230.024,219.044,230.024,214.902z"/>
		<path d="M174.692,232.045c4.143,0,7.5-3.358,7.5-7.5v-9.643c0-17.664-14.371-32.035-32.035-32.035h-17.88    c-17.664,0-32.035,14.371-32.035,32.035v9.643c0,4.142,3.357,7.5,7.5,7.5s7.5-3.358,7.5-7.5v-9.643    c0-9.393,7.642-17.035,17.035-17.035h17.88c9.394,0,17.035,7.642,17.035,17.035v9.643    C167.192,228.687,170.55,232.045,174.692,232.045z"/>
		<path d="M507.257,108.417l-248.5-98.237c-1.771-0.7-3.742-0.7-5.514,0l-97.554,38.564c-3.853,1.522-5.74,5.88-4.218,9.732    s5.881,5.742,9.731,4.217L256,25.22l241,95.272v11.594H15v-11.594L133.134,73.79c3.853-1.522,5.74-5.88,4.218-9.732    c-1.522-3.852-5.88-5.74-9.731-4.217L4.743,108.417C1.881,109.548,0,112.314,0,115.391v24.194c0,4.142,3.357,7.5,7.5,7.5h17.091    v5.866c0,13.402,10.903,24.306,24.306,24.306h3.514v47.288c0,4.142,3.357,7.5,7.5,7.5s7.5-3.358,7.5-7.5v-47.212h377.18v47.212    c0,4.142,3.357,7.5,7.5,7.5s7.5-3.358,7.5-7.5v-47.288h3.514c13.402,0,24.306-10.903,24.306-24.306v-5.866H504.5    c4.143,0,7.5-3.358,7.5-7.5v-24.194C512,112.314,510.119,109.548,507.257,108.417z M472.409,152.952    c0,5.131-4.175,9.306-9.306,9.306H48.896c-5.131,0-9.306-4.174-9.306-9.306v-5.866h432.818V152.952z"/>
		<path d="M287.837,82.704c0-17.555-14.282-31.836-31.837-31.836s-31.837,14.282-31.837,31.836s14.282,31.837,31.837,31.837    S287.837,100.259,287.837,82.704z M239.163,82.704c0-9.284,7.553-16.836,16.837-16.836s16.837,7.553,16.837,16.836    S265.284,99.541,256,99.541S239.163,91.988,239.163,82.704z"/>
		<path d="M385.361,362.198h-9.829h-8.305h-9.829c-14.066,0-27.171,6.967-35.056,18.636c-2.318,3.432-1.416,8.094,2.016,10.413    c3.435,2.32,8.096,1.417,10.414-2.016c5.054-7.48,13.427-11.962,22.429-12.027l-8.649,29.398    c-0.766,2.602-0.066,5.415,1.829,7.356l15.633,16.011c1.411,1.445,3.346,2.26,5.366,2.26s3.955-0.815,5.366-2.26l15.633-16.011    c1.896-1.941,2.595-4.754,1.829-7.356l-8.65-29.399c14.951,0.107,27.083,12.299,27.083,27.276v35.333H353    c-4.143,0-7.5,3.358-7.5,7.5s3.357,7.5,7.5,7.5h67.142c4.143,0,7.5-3.358,7.5-7.5v-42.833    C427.642,381.165,408.675,362.198,385.361,362.198z M371.38,413.994l-7.198-7.372l7.198-24.465l7.198,24.465L371.38,413.994z"/>
		<path d="M187.642,391.246c3.432-2.319,4.334-6.981,2.016-10.413c-7.885-11.669-20.989-18.636-35.056-18.636h-9.829h-8.305h-9.829    c-23.313,0-42.28,18.967-42.28,42.281v42.833c0,4.142,3.357,7.5,7.5,7.5H159c4.143,0,7.5-3.358,7.5-7.5s-3.357-7.5-7.5-7.5H99.358    v-35.333c0-14.976,12.132-27.169,27.083-27.276l-8.65,29.399c-0.766,2.602-0.066,5.415,1.829,7.356l15.633,16.011    c1.411,1.445,3.346,2.26,5.366,2.26s3.955-0.815,5.366-2.26l15.633-16.011c1.896-1.941,2.595-4.754,1.829-7.356l-8.649-29.398    c9.002,0.065,17.375,4.547,22.429,12.027C179.546,392.663,184.21,393.566,187.642,391.246z M140.62,413.994l-7.198-7.372    l7.198-24.465l7.198,24.465L140.62,413.994z"/>
		<path d="M92.363,295.673c-1.308,14.358,1.565,29.209,8.656,40.797c8.673,14.173,25.474,22.925,42.065,22.012    s32.292-11.404,39.577-26.338c4.578-9.384,5.925-20.037,5.955-30.478c0.029-10.12-1.174-20.442-5.447-29.616    c-8.562-18.385-30.046-29.788-50.071-26.577C108.163,249.472,94.529,271.895,92.363,295.673z M140.62,343.442    c-17.756,0-32.202-14.446-32.202-32.202v-5.188c3.79,0.82,7.667,1.239,11.606,1.239c12.598,0,24.768-4.365,34.468-12.188    c5.088,5.088,11.387,8.756,18.331,10.67v5.466C172.823,328.996,158.377,343.442,140.62,343.442z M142.389,260.027    c4.855,0.262,9.651,1.583,13.9,3.953c9.176,5.12,15.527,14.987,16.387,25.459c-3.843-0.349-6.529-3.804-8.889-6.857    c-2.36-3.053-5.538-6.275-9.374-5.857c-3.021,0.329-5.264,2.818-7.473,4.905c-6.678,6.311-26.65,16.262-35.893,9.647    c-8.925-6.388,7.994-24.322,14.97-27.873C131.046,260.845,136.757,259.724,142.389,260.027z"/>
		<path d="M323.122,295.673c-1.308,14.358,1.565,29.209,8.655,40.796c8.673,14.173,25.474,22.925,42.065,22.013    c16.591-0.912,32.292-11.403,39.577-26.337c4.578-9.384,5.925-20.036,5.956-30.477c0.03-10.122-1.174-20.446-5.448-29.621    c-8.563-18.384-30.046-29.786-50.071-26.573C338.922,249.473,325.288,271.896,323.122,295.673z M371.38,343.442    c-17.757,0-32.203-14.446-32.203-32.202v-5.188c3.79,0.82,7.667,1.239,11.607,1.239c12.597,0,24.769-4.366,34.468-12.187    c5.088,5.087,11.386,8.755,18.33,10.67v5.466C403.582,328.996,389.136,343.442,371.38,343.442z M373.147,260.029    c4.782,0.256,9.507,1.538,13.707,3.844c9.278,5.093,15.718,15.025,16.583,25.574c-3.845-0.355-6.53-3.813-8.892-6.868    c-2.362-3.054-5.546-6.276-9.384-5.853c-3.017,0.333-5.256,2.818-7.462,4.903c-6.741,6.373-26.551,16.194-35.882,9.633    c-8.749-6.153,7.566-23.967,14.557-27.65C361.5,260.912,367.365,259.72,373.147,260.029z"/>
		<path d="M275.101,381.31h-13.428h-11.346h-13.428c-30.337,0-55.018,24.681-55.018,55.017v58.518c0,4.142,3.357,7.5,7.5,7.5    h133.236c4.143,0,7.5-3.358,7.5-7.5v-58.518C330.118,405.991,305.438,381.31,275.101,381.31z M256.062,396.31l12.861,43.714    L256,453.26l-12.923-13.235l12.861-43.714H256.062z M315.118,487.345H196.882v-51.018c0-22.065,17.952-40.017,40.018-40.017h3.403    l-12.855,43.694c-0.766,2.602-0.066,5.415,1.829,7.356l21.357,21.874c1.411,1.446,3.346,2.261,5.366,2.261    s3.955-0.815,5.366-2.261l21.357-21.874c1.896-1.941,2.595-4.754,1.829-7.356l-12.855-43.694h3.403    c22.065,0,40.018,17.952,40.018,40.017V487.345z"/>
		<path d="M193.593,285.582c-2.341,16.501-0.563,33.828,5.101,48.56c6.141,15.97,19.248,29.119,35.198,35.31    s34.496,5.328,49.803-2.317c11.741-5.864,21.535-15.62,27.25-27.434c5.852-12.097,7.355-25.832,7.565-39.268    c0.203-12.99-0.778-26.257-5.69-38.283c-10.252-25.099-38.64-41.416-65.487-37.64C215.261,229.018,197.795,255.97,193.593,285.582    z M256,358.572c-25.773,0-46.741-20.968-46.741-46.742v-10.569c6.037,1.612,12.26,2.427,18.604,2.427    c17.43,0,34.238-6.349,47.301-17.659c7.362,8.069,16.94,13.696,27.578,16.196v9.604C302.741,337.603,281.773,358.572,256,358.572z     M258.582,239.148c7.992,0.447,15.874,2.864,22.616,7.187c13.356,8.564,21.78,24.318,21.486,40.181    c-6.94-2.094-13.189-6.415-17.598-12.169c-2.287-2.985-4.623-6.677-8.368-7.021c-3.635-0.334-6.578,2.692-9.196,5.235    c-13.871,13.474-34.867,19.146-53.636,14.489c-1.451-0.36-2.967-0.824-3.978-1.926c-4.036-4.404,3.626-19.244,6.054-23.297    c4.669-7.793,11.553-14.298,19.755-18.25C242.795,240.165,250.742,238.709,258.582,239.148z"/>
	</g>
</g>















</svg>
